<?xml version="1.0" encoding="UTF-8" standalone="no"?><svg xmlns="http://www.w3.org/2000/svg" xmlns:xlink="http://www.w3.org/1999/xlink" contentScriptType="application/ecmascript" contentStyleType="text/css" height="1304px" preserveAspectRatio="none" style="width:1760px;height:1304px;" version="1.1" viewBox="0 0 1760 1304" width="1760px" zoomAndPan="magnify"><defs><filter height="300%" id="f1l2oc2ttlqkr1" width="300%" x="-1" y="-1"><feGaussianBlur result="blurOut" stdDeviation="2.0"/><feColorMatrix in="blurOut" result="blurOut2" type="matrix" values="0 0 0 0 0 0 0 0 0 0 0 0 0 0 0 0 0 0 .4 0"/><feOffset dx="4.0" dy="4.0" in="blurOut2" result="blurOut3"/><feBlend in="SourceGraphic" in2="blurOut3" mode="normal"/></filter></defs><g><!--MD5=[c92db334f0442dbcfd2821171b607b03]
entity Account1--><rect fill="#FFFFFF" filter="url(#f1l2oc2ttlqkr1)" height="47.6094" style="stroke:#A80036;stroke-width:1.5;" width="70" x="636" y="7"/><rect fill="#FFFFFF" height="10" style="stroke:#A80036;stroke-width:1.5;" width="15" x="686" y="12"/><rect fill="#FFFFFF" height="2" style="stroke:#A80036;stroke-width:1.5;" width="4" x="684" y="14"/><rect fill="#FFFFFF" height="2" style="stroke:#A80036;stroke-width:1.5;" width="4" x="684" y="18"/><text fill="#000000" font-family="sans-serif" font-size="14" lengthAdjust="spacingAndGlyphs" textLength="30" x="651" y="41.5332">Start</text><!--MD5=[5c0db4dc42c75fd5527ecec115a10912]
entity Account2--><rect fill="#FFFFFF" filter="url(#f1l2oc2ttlqkr1)" height="47.6094" style="stroke:#A80036;stroke-width:1.5;" width="103" x="1089.5" y="419"/><rect fill="#FFFFFF" height="10" style="stroke:#A80036;stroke-width:1.5;" width="15" x="1172.5" y="424"/><rect fill="#FFFFFF" height="2" style="stroke:#A80036;stroke-width:1.5;" width="4" x="1170.5" y="426"/><rect fill="#FFFFFF" height="2" style="stroke:#A80036;stroke-width:1.5;" width="4" x="1170.5" y="430"/><text fill="#000000" font-family="sans-serif" font-size="14" lengthAdjust="spacingAndGlyphs" textLength="63" x="1104.5" y="453.5332">Account 2</text><!--MD5=[886a887ad5129497b1b02a03d92d8b6a]
entity Account3--><rect fill="#FFFFFF" filter="url(#f1l2oc2ttlqkr1)" height="47.6094" style="stroke:#A80036;stroke-width:1.5;" width="103" x="619.5" y="213"/><rect fill="#FFFFFF" height="10" style="stroke:#A80036;stroke-width:1.5;" width="15" x="702.5" y="218"/><rect fill="#FFFFFF" height="2" style="stroke:#A80036;stroke-width:1.5;" width="4" x="700.5" y="220"/><rect fill="#FFFFFF" height="2" style="stroke:#A80036;stroke-width:1.5;" width="4" x="700.5" y="224"/><text fill="#000000" font-family="sans-serif" font-size="14" lengthAdjust="spacingAndGlyphs" textLength="63" x="634.5" y="247.5332">Account 3</text><!--MD5=[5ac99ad5dd331ac97a5d4a6efeb56c8e]
entity Account4--><rect fill="#FFFFFF" filter="url(#f1l2oc2ttlqkr1)" height="47.6094" style="stroke:#A80036;stroke-width:1.5;" width="103" x="1075.5" y="831"/><rect fill="#FFFFFF" height="10" style="stroke:#A80036;stroke-width:1.5;" width="15" x="1158.5" y="836"/><rect fill="#FFFFFF" height="2" style="stroke:#A80036;stroke-width:1.5;" width="4" x="1156.5" y="838"/><rect fill="#FFFFFF" height="2" style="stroke:#A80036;stroke-width:1.5;" width="4" x="1156.5" y="842"/><text fill="#000000" font-family="sans-serif" font-size="14" lengthAdjust="spacingAndGlyphs" textLength="63" x="1090.5" y="865.5332">Account 4</text><!--MD5=[da59f4ae277c11d017e4e884d6d92417]
entity Account5--><rect fill="#FFFFFF" filter="url(#f1l2oc2ttlqkr1)" height="47.6094" style="stroke:#A80036;stroke-width:1.5;" width="103" x="568.5" y="1037"/><rect fill="#FFFFFF" height="10" style="stroke:#A80036;stroke-width:1.5;" width="15" x="651.5" y="1042"/><rect fill="#FFFFFF" height="2" style="stroke:#A80036;stroke-width:1.5;" width="4" x="649.5" y="1044"/><rect fill="#FFFFFF" height="2" style="stroke:#A80036;stroke-width:1.5;" width="4" x="649.5" y="1048"/><text fill="#000000" font-family="sans-serif" font-size="14" lengthAdjust="spacingAndGlyphs" textLength="63" x="583.5" y="1071.5332">Account 5</text><!--MD5=[53c18a3e673f825cca0801fcc72ad8e8]
entity Account6--><rect fill="#FFFFFF" filter="url(#f1l2oc2ttlqkr1)" height="47.6094" style="stroke:#A80036;stroke-width:1.5;" width="103" x="491.5" y="625"/><rect fill="#FFFFFF" height="10" style="stroke:#A80036;stroke-width:1.5;" width="15" x="574.5" y="630"/><rect fill="#FFFFFF" height="2" style="stroke:#A80036;stroke-width:1.5;" width="4" x="572.5" y="632"/><rect fill="#FFFFFF" height="2" style="stroke:#A80036;stroke-width:1.5;" width="4" x="572.5" y="636"/><text fill="#000000" font-family="sans-serif" font-size="14" lengthAdjust="spacingAndGlyphs" textLength="63" x="506.5" y="659.5332">Account 6</text><!--MD5=[5875184165e5144cb5985ad85db43c21]
entity Account7--><rect fill="#FFFFFF" filter="url(#f1l2oc2ttlqkr1)" height="47.6094" style="stroke:#A80036;stroke-width:1.5;" width="65" x="605.5" y="1243"/><rect fill="#FFFFFF" height="10" style="stroke:#A80036;stroke-width:1.5;" width="15" x="650.5" y="1248"/><rect fill="#FFFFFF" height="2" style="stroke:#A80036;stroke-width:1.5;" width="4" x="648.5" y="1250"/><rect fill="#FFFFFF" height="2" style="stroke:#A80036;stroke-width:1.5;" width="4" x="648.5" y="1254"/><text fill="#000000" font-family="sans-serif" font-size="14" lengthAdjust="spacingAndGlyphs" textLength="25" x="620.5" y="1277.5332">End</text><!--MD5=[aaf0b23046d4e94c3929102ad18b637d]
entity 1To3--><polygon fill="#FEFECE" filter="url(#f1l2oc2ttlqkr1)" points="610,115,610,152.6094,732,152.6094,732,125,722,115,610,115" style="stroke:#000000;stroke-width:1.5;"/><path d="M722,115 L722,125 L732,125 " fill="#FEFECE" style="stroke:#000000;stroke-width:1.5;"/><text fill="#000000" font-family="sans-serif" font-size="14" lengthAdjust="spacingAndGlyphs" textLength="102" x="620" y="139.5332">499230,64 Euro</text><!--MD5=[8f6e6e01b6bb2e967b914aa487a93b20]
entity 1To6--><polygon fill="#FEFECE" filter="url(#f1l2oc2ttlqkr1)" points="378,115,378,152.6094,500,152.6094,500,125,490,115,378,115" style="stroke:#000000;stroke-width:1.5;"/><path d="M490,115 L490,125 L500,125 " fill="#FEFECE" style="stroke:#000000;stroke-width:1.5;"/><text fill="#000000" font-family="sans-serif" font-size="14" lengthAdjust="spacingAndGlyphs" textLength="102" x="388" y="139.5332">346845,04 Euro</text><!--MD5=[d3770c9e7bd584fcabfc087c61873ad0]
entity 1To4--><polygon fill="#FEFECE" filter="url(#f1l2oc2ttlqkr1)" points="1423,218,1423,255.6094,1537,255.6094,1537,228,1527,218,1423,218" style="stroke:#000000;stroke-width:1.5;"/><path d="M1527,218 L1527,228 L1537,228 " fill="#FEFECE" style="stroke:#000000;stroke-width:1.5;"/><text fill="#000000" font-family="sans-serif" font-size="14" lengthAdjust="spacingAndGlyphs" textLength="94" x="1433" y="242.5332">92181,48 Euro</text><!--MD5=[d86f232d342b64aa8958f65f714d96d9]
entity 1To5--><polygon fill="#FEFECE" filter="url(#f1l2oc2ttlqkr1)" points="44,218,44,255.6094,158,255.6094,158,228,148,218,44,218" style="stroke:#000000;stroke-width:1.5;"/><path d="M148,218 L148,228 L158,228 " fill="#FEFECE" style="stroke:#000000;stroke-width:1.5;"/><text fill="#000000" font-family="sans-serif" font-size="14" lengthAdjust="spacingAndGlyphs" textLength="94" x="54" y="242.5332">57393,19 Euro</text><!--MD5=[2daf862e03896e652933b99e3544a0f0]
entity 1To2--><polygon fill="#FEFECE" filter="url(#f1l2oc2ttlqkr1)" points="895,115,895,152.6094,1001,152.6094,1001,125,991,115,895,115" style="stroke:#000000;stroke-width:1.5;"/><path d="M991,115 L991,125 L1001,125 " fill="#FEFECE" style="stroke:#000000;stroke-width:1.5;"/><text fill="#000000" font-family="sans-serif" font-size="14" lengthAdjust="spacingAndGlyphs" textLength="86" x="905" y="139.5332">4349,65 Euro</text><!--MD5=[7ec5e86a0c4fed2e753a213a3f8d672f]
entity 2To6--><polygon fill="#FEFECE" filter="url(#f1l2oc2ttlqkr1)" points="838,527,838,564.6094,960,564.6094,960,537,950,527,838,527" style="stroke:#000000;stroke-width:1.5;"/><path d="M950,527 L950,537 L960,537 " fill="#FEFECE" style="stroke:#000000;stroke-width:1.5;"/><text fill="#000000" font-family="sans-serif" font-size="14" lengthAdjust="spacingAndGlyphs" textLength="102" x="848" y="551.5332">857112,53 Euro</text><!--MD5=[532447da6959710dd94d283ad610fc54]
entity 2To4--><polygon fill="#FEFECE" filter="url(#f1l2oc2ttlqkr1)" points="1137,527,1137,564.6094,1259,564.6094,1259,537,1249,527,1137,527" style="stroke:#000000;stroke-width:1.5;"/><path d="M1249,527 L1249,537 L1259,537 " fill="#FEFECE" style="stroke:#000000;stroke-width:1.5;"/><text fill="#000000" font-family="sans-serif" font-size="14" lengthAdjust="spacingAndGlyphs" textLength="102" x="1147" y="551.5332">428875,36 Euro</text><!--MD5=[154f5205eb5f54524d861b55d59b9d66]
entity 3To2--><polygon fill="#FEFECE" filter="url(#f1l2oc2ttlqkr1)" points="895,321,895,358.6094,1017,358.6094,1017,331,1007,321,895,321" style="stroke:#000000;stroke-width:1.5;"/><path d="M1007,321 L1007,331 L1017,331 " fill="#FEFECE" style="stroke:#000000;stroke-width:1.5;"/><text fill="#000000" font-family="sans-serif" font-size="14" lengthAdjust="spacingAndGlyphs" textLength="102" x="905" y="345.5332">934101,12 Euro</text><!--MD5=[ef22a87c949cf27669970131ea6f13f8]
entity 5To3--><polygon fill="#FEFECE" filter="url(#f1l2oc2ttlqkr1)" points="130,1145,130,1182.6094,252,1182.6094,252,1155,242,1145,130,1145" style="stroke:#000000;stroke-width:1.5;"/><path d="M242,1145 L242,1155 L252,1155 " fill="#FEFECE" style="stroke:#000000;stroke-width:1.5;"/><text fill="#000000" font-family="sans-serif" font-size="14" lengthAdjust="spacingAndGlyphs" textLength="102" x="140" y="1169.5332">463309,01 Euro</text><!--MD5=[33051a0de35ecc60269ef2927007dc4f]
entity 6To4--><polygon fill="#FEFECE" filter="url(#f1l2oc2ttlqkr1)" points="594,733,594,770.6094,724,770.6094,724,743,714,733,594,733" style="stroke:#000000;stroke-width:1.5;"/><path d="M714,733 L714,743 L724,743 " fill="#FEFECE" style="stroke:#000000;stroke-width:1.5;"/><text fill="#000000" font-family="sans-serif" font-size="14" lengthAdjust="spacingAndGlyphs" textLength="110" x="604" y="757.5332">1077192,21 Euro</text><!--MD5=[5333cf176da0016152b85170ccaa2d9c]
entity 3To4--><polygon fill="#FEFECE" filter="url(#f1l2oc2ttlqkr1)" points="724,321,724,358.6094,846,358.6094,846,331,836,321,724,321" style="stroke:#000000;stroke-width:1.5;"/><path d="M836,321 L836,331 L846,331 " fill="#FEFECE" style="stroke:#000000;stroke-width:1.5;"/><text fill="#000000" font-family="sans-serif" font-size="14" lengthAdjust="spacingAndGlyphs" textLength="102" x="734" y="345.5332">171248,45 Euro</text><!--MD5=[d260c20c911249f659c8cc9f6beb800e]
entity 3To7--><polygon fill="#FEFECE" filter="url(#f1l2oc2ttlqkr1)" points="59,424,59,461.6094,181,461.6094,181,434,171,424,59,424" style="stroke:#000000;stroke-width:1.5;"/><path d="M171,424 L171,434 L181,434 " fill="#FEFECE" style="stroke:#000000;stroke-width:1.5;"/><text fill="#000000" font-family="sans-serif" font-size="14" lengthAdjust="spacingAndGlyphs" textLength="102" x="69" y="448.5332">436591,97 Euro</text><!--MD5=[8e79ee197daf5409de0e147641ffc7d5]
entity 5To7--><polygon fill="#FEFECE" filter="url(#f1l2oc2ttlqkr1)" points="581,1145,581,1182.6094,695,1182.6094,695,1155,685,1145,581,1145" style="stroke:#000000;stroke-width:1.5;"/><path d="M685,1145 L685,1155 L695,1155 " fill="#FEFECE" style="stroke:#000000;stroke-width:1.5;"/><text fill="#000000" font-family="sans-serif" font-size="14" lengthAdjust="spacingAndGlyphs" textLength="94" x="591" y="1169.5332">73718,41 Euro</text><!--MD5=[f183e2157db9bb9847f43e5fc72e50cf]
entity 2To3--><polygon fill="#FEFECE" filter="url(#f1l2oc2ttlqkr1)" points="1507,527,1507,564.6094,1629,564.6094,1629,537,1619,527,1507,527" style="stroke:#000000;stroke-width:1.5;"/><path d="M1619,527 L1619,537 L1629,537 " fill="#FEFECE" style="stroke:#000000;stroke-width:1.5;"/><text fill="#000000" font-family="sans-serif" font-size="14" lengthAdjust="spacingAndGlyphs" textLength="102" x="1517" y="551.5332">252894,81 Euro</text><!--MD5=[8f5995a904d40035547d5a4c30f95d36]
entity 5To2--><polygon fill="#FEFECE" filter="url(#f1l2oc2ttlqkr1)" points="1175,1145,1175,1182.6094,1297,1182.6094,1297,1155,1287,1145,1175,1145" style="stroke:#000000;stroke-width:1.5;"/><path d="M1287,1145 L1287,1155 L1297,1155 " fill="#FEFECE" style="stroke:#000000;stroke-width:1.5;"/><text fill="#000000" font-family="sans-serif" font-size="14" lengthAdjust="spacingAndGlyphs" textLength="102" x="1185" y="1169.5332">208143,63 Euro</text><!--MD5=[2d2513f4b1e22116c4e41243cadf70a9]
entity 3To5--><polygon fill="#FEFECE" filter="url(#f1l2oc2ttlqkr1)" points="366,424,366,461.6094,488,461.6094,488,434,478,424,366,424" style="stroke:#000000;stroke-width:1.5;"/><path d="M478,424 L478,434 L488,434 " fill="#FEFECE" style="stroke:#000000;stroke-width:1.5;"/><text fill="#000000" font-family="sans-serif" font-size="14" lengthAdjust="spacingAndGlyphs" textLength="102" x="376" y="448.5332">140085,29 Euro</text><!--MD5=[fafcc9726a81bcd8bd831596fa8dd751]
entity 4To6--><polygon fill="#FEFECE" filter="url(#f1l2oc2ttlqkr1)" points="665,939,665,976.6094,787,976.6094,787,949,777,939,665,939" style="stroke:#000000;stroke-width:1.5;"/><path d="M777,939 L777,949 L787,949 " fill="#FEFECE" style="stroke:#000000;stroke-width:1.5;"/><text fill="#000000" font-family="sans-serif" font-size="14" lengthAdjust="spacingAndGlyphs" textLength="102" x="675" y="963.5332">463893,87 Euro</text><!--MD5=[a1b8b208721ef3cd084155d5cfd6881e]
entity 3To6--><polygon fill="#FEFECE" filter="url(#f1l2oc2ttlqkr1)" points="488,321,488,358.6094,610,358.6094,610,331,600,321,488,321" style="stroke:#000000;stroke-width:1.5;"/><path d="M600,321 L600,331 L610,331 " fill="#FEFECE" style="stroke:#000000;stroke-width:1.5;"/><text fill="#000000" font-family="sans-serif" font-size="14" lengthAdjust="spacingAndGlyphs" textLength="102" x="498" y="345.5332">698192,90 Euro</text><!--MD5=[98aee5140ae38ba6165c66d6b2a5a1fd]
entity 6To3--><polygon fill="#FEFECE" filter="url(#f1l2oc2ttlqkr1)" points="759,733,759,770.6094,889,770.6094,889,743,879,733,759,733" style="stroke:#000000;stroke-width:1.5;"/><path d="M879,733 L879,743 L889,743 " fill="#FEFECE" style="stroke:#000000;stroke-width:1.5;"/><text fill="#000000" font-family="sans-serif" font-size="14" lengthAdjust="spacingAndGlyphs" textLength="110" x="769" y="757.5332">1126509,23 Euro</text><!--MD5=[ddf9b1f615efa368d5dbf03efa4fcddd]
entity 5To6--><polygon fill="#FEFECE" filter="url(#f1l2oc2ttlqkr1)" points="424,1145,424,1182.6094,546,1182.6094,546,1155,536,1145,424,1145" style="stroke:#000000;stroke-width:1.5;"/><path d="M536,1145 L536,1155 L546,1155 " fill="#FEFECE" style="stroke:#000000;stroke-width:1.5;"/><text fill="#000000" font-family="sans-serif" font-size="14" lengthAdjust="spacingAndGlyphs" textLength="102" x="434" y="1169.5332">521120,78 Euro</text><!--MD5=[d43f61c9ed7c4007a3c6b9c752a7d2fe]
entity 4To3--><polygon fill="#FEFECE" filter="url(#f1l2oc2ttlqkr1)" points="1436,939,1436,976.6094,1550,976.6094,1550,949,1540,939,1436,939" style="stroke:#000000;stroke-width:1.5;"/><path d="M1540,939 L1540,949 L1550,949 " fill="#FEFECE" style="stroke:#000000;stroke-width:1.5;"/><text fill="#000000" font-family="sans-serif" font-size="14" lengthAdjust="spacingAndGlyphs" textLength="94" x="1446" y="963.5332">38276,04 Euro</text><!--MD5=[325f6062f7906a1451cb88e5ef28dc42]
entity 4To5--><polygon fill="#FEFECE" filter="url(#f1l2oc2ttlqkr1)" points="909,939,909,976.6094,1031,976.6094,1031,949,1021,939,909,939" style="stroke:#000000;stroke-width:1.5;"/><path d="M1021,939 L1021,949 L1031,949 " fill="#FEFECE" style="stroke:#000000;stroke-width:1.5;"/><text fill="#000000" font-family="sans-serif" font-size="14" lengthAdjust="spacingAndGlyphs" textLength="102" x="919" y="963.5332">699075,30 Euro</text><!--MD5=[d11dc9b1474e749384a1c14d16a34c8e]
entity 4To2--><polygon fill="#FEFECE" filter="url(#f1l2oc2ttlqkr1)" points="1208,939,1208,976.6094,1330,976.6094,1330,949,1320,939,1208,939" style="stroke:#000000;stroke-width:1.5;"/><path d="M1320,939 L1320,949 L1330,949 " fill="#FEFECE" style="stroke:#000000;stroke-width:1.5;"/><text fill="#000000" font-family="sans-serif" font-size="14" lengthAdjust="spacingAndGlyphs" textLength="102" x="1218" y="963.5332">703063,71 Euro</text><!--MD5=[475109cc6725e1234a7ad646f2ac9371]
entity 6To7--><polygon fill="#FEFECE" filter="url(#f1l2oc2ttlqkr1)" points="310,836,310,873.6094,432,873.6094,432,846,422,836,310,836" style="stroke:#000000;stroke-width:1.5;"/><path d="M422,836 L422,846 L432,846 " fill="#FEFECE" style="stroke:#000000;stroke-width:1.5;"/><text fill="#000000" font-family="sans-serif" font-size="14" lengthAdjust="spacingAndGlyphs" textLength="102" x="320" y="860.5332">198763,72 Euro</text><!--MD5=[94f9d61c527db96a72beec7fe44fbcde]
entity 6To2--><polygon fill="#FEFECE" filter="url(#f1l2oc2ttlqkr1)" points="924,733,924,770.6094,1046,770.6094,1046,743,1036,733,924,733" style="stroke:#000000;stroke-width:1.5;"/><path d="M1036,733 L1036,743 L1046,743 " fill="#FEFECE" style="stroke:#000000;stroke-width:1.5;"/><text fill="#000000" font-family="sans-serif" font-size="14" lengthAdjust="spacingAndGlyphs" textLength="102" x="934" y="757.5332">427955,58 Euro</text><!--MD5=[5d00a841b5a9023fcb208b11e3df615b]
entity 2To5--><polygon fill="#FEFECE" filter="url(#f1l2oc2ttlqkr1)" points="1066,630,1066,667.6094,1188,667.6094,1188,640,1178,630,1066,630" style="stroke:#000000;stroke-width:1.5;"/><path d="M1178,630 L1178,640 L1188,640 " fill="#FEFECE" style="stroke:#000000;stroke-width:1.5;"/><text fill="#000000" font-family="sans-serif" font-size="14" lengthAdjust="spacingAndGlyphs" textLength="102" x="1076" y="654.5332">491146,79 Euro</text><!--MD5=[6023aa83a623ce9ae517980d37eabca2]
entity 5To4--><polygon fill="#FEFECE" filter="url(#f1l2oc2ttlqkr1)" points="876,1145,876,1182.6094,998,1182.6094,998,1155,988,1145,876,1145" style="stroke:#000000;stroke-width:1.5;"/><path d="M988,1145 L988,1155 L998,1155 " fill="#FEFECE" style="stroke:#000000;stroke-width:1.5;"/><text fill="#000000" font-family="sans-serif" font-size="14" lengthAdjust="spacingAndGlyphs" textLength="102" x="886" y="1169.5332">178153,12 Euro</text><!--MD5=[11211f0dd10693d105902fa23058c94d]
entity 6To5--><polygon fill="#FEFECE" filter="url(#f1l2oc2ttlqkr1)" points="538,836,538,873.6094,652,873.6094,652,846,642,836,538,836" style="stroke:#000000;stroke-width:1.5;"/><path d="M642,836 L642,846 L652,846 " fill="#FEFECE" style="stroke:#000000;stroke-width:1.5;"/><text fill="#000000" font-family="sans-serif" font-size="14" lengthAdjust="spacingAndGlyphs" textLength="94" x="548" y="860.5332">56744,38 Euro</text><!--MD5=[5e2c04fe2e15c17a086bf92cfd871f7f]
entity 2To7--><polygon fill="#FEFECE" filter="url(#f1l2oc2ttlqkr1)" points="1472,630,1472,667.6094,1594,667.6094,1594,640,1584,630,1472,630" style="stroke:#000000;stroke-width:1.5;"/><path d="M1584,630 L1584,640 L1594,640 " fill="#FEFECE" style="stroke:#000000;stroke-width:1.5;"/><text fill="#000000" font-family="sans-serif" font-size="14" lengthAdjust="spacingAndGlyphs" textLength="102" x="1482" y="654.5332">247584,20 Euro</text><!--MD5=[3bdf3742252a64116148356b17ee40be]
entity 4To7--><polygon fill="#FEFECE" filter="url(#f1l2oc2ttlqkr1)" points="1436,1042,1436,1079.6094,1550,1079.6094,1550,1052,1540,1042,1436,1042" style="stroke:#000000;stroke-width:1.5;"/><path d="M1540,1042 L1540,1052 L1550,1052 " fill="#FEFECE" style="stroke:#000000;stroke-width:1.5;"/><text fill="#000000" font-family="sans-serif" font-size="14" lengthAdjust="spacingAndGlyphs" textLength="94" x="1446" y="1066.5332">43341,70 Euro</text><!--MD5=[b71e6ecaef342b5422bb67b1e5c8918a]
link Account1 to 1To3--><path d="M671,55.17 C671,71.5 671,93.27 671,109.64 " fill="none" id="Account1-to-1To3" style="stroke:#A80036;stroke-width:1.0;"/><polygon fill="#A80036" points="671,114.97,675,105.97,671,109.97,667,105.97,671,114.97" style="stroke:#A80036;stroke-width:1.0;"/><!--MD5=[991a0fedb770966de5d97a45463a6b61]
link 1To3 to Account3--><path d="M671,153.06 C671,168.17 671,190.02 671,207.5 " fill="none" id="1To3-to-Account3" style="stroke:#A80036;stroke-width:1.0;"/><polygon fill="#A80036" points="671,212.77,675,203.77,671,207.77,667,203.77,671,212.77" style="stroke:#A80036;stroke-width:1.0;"/><!--MD5=[025d55619d0eca01995a1fb942a4d60d]
link Account1 to 1To6--><path d="M635.764,47.34 C595.526,64.86 529.549,93.58 485.216,112.88 " fill="none" id="Account1-to-1To6" style="stroke:#A80036;stroke-width:1.0;"/><polygon fill="#A80036" points="480.458,114.95,490.3066,115.0263,485.0426,112.9548,487.1142,107.6908,480.458,114.95" style="stroke:#A80036;stroke-width:1.0;"/><!--MD5=[e109b3fde357f45fe58c19dfd3da7378]
link 1To6 to Account6--><path d="M416.269,153.15 C378.038,185.89 305,258.91 305,339 C305,339 305,339 305,444 C305,539.13 415.969,599.461 486.362,628.162 " fill="none" id="1To6-to-Account6" style="stroke:#A80036;stroke-width:1.0;"/><polygon fill="#A80036" points="491.358,630.174,484.5034,623.1019,486.7199,628.3065,481.5153,630.5229,491.358,630.174" style="stroke:#A80036;stroke-width:1.0;"/><!--MD5=[77a5e8e94ed7f36dcd2e8c7fee3a35d1]
link Account1 to 1To4--><path d="M706.03,40.12 C768.707,54.7 904.138,86.48 1018,115 C1161.47,150.94 1329.31,195.54 1417.9,219.29 " fill="none" id="Account1-to-1To4" style="stroke:#A80036;stroke-width:1.0;"/><polygon fill="#A80036" points="1422.84,220.61,1415.1677,214.4345,1418.0074,219.327,1413.1149,222.1667,1422.84,220.61" style="stroke:#A80036;stroke-width:1.0;"/><!--MD5=[6a32e34365900c71913647e65b114ee9]
link 1To4 to Account4--><path d="M1537.33,245.17 C1588.34,254.4 1661.82,275.14 1708,321 C1748.71,361.43 1753,384.624 1753,442 C1753,442 1753,442 1753,650 C1753,769.038 1338.63,829.414 1184.15,847.786 " fill="none" id="1To4-to-Account4" style="stroke:#A80036;stroke-width:1.0;"/><polygon fill="#A80036" points="1178.76,848.422,1188.1667,851.3399,1183.7256,847.8361,1187.2293,843.395,1178.76,848.422" style="stroke:#A80036;stroke-width:1.0;"/><!--MD5=[2a2c691a6faa309d15e35f6ba5fbebdf]
link Account1 to 1To5--><path d="M635.868,39.25 C577.593,51.75 457.679,79.46 360,115 C279.124,144.42 188.977,189.5 139.227,215.53 " fill="none" id="Account1-to-1To5" style="stroke:#A80036;stroke-width:1.0;"/><polygon fill="#A80036" points="134.541,217.99,144.3693,217.3543,138.9695,215.6686,140.6551,210.2688,134.541,217.99" style="stroke:#A80036;stroke-width:1.0;"/><!--MD5=[cce52d016f5a1a62bec8db432c1e1196]
link 1To5 to Account5--><path d="M85.947,256.08 C59.1595,290.15 6,367.183 6,442 C6,442 6,442 6,753 C6,1000.785 410.984,1048.586 563.139,1057.801 " fill="none" id="1To5-to-Account5" style="stroke:#A80036;stroke-width:1.0;"/><polygon fill="#A80036" points="568.444,1058.113,559.6937,1053.5927,563.4526,1057.8201,559.2252,1061.579,568.444,1058.113" style="stroke:#A80036;stroke-width:1.0;"/><!--MD5=[3362cd9107d1877aab98988829210b0d]
link Account1 to 1To2--><path d="M706.082,44.79 C753.281,62 837.709,92.79 893.291,113.05 " fill="none" id="Account1-to-1To2" style="stroke:#A80036;stroke-width:1.0;"/><polygon fill="#A80036" points="898.243,114.86,891.1567,108.0201,893.5452,113.148,888.4174,115.5365,898.243,114.86" style="stroke:#A80036;stroke-width:1.0;"/><!--MD5=[ecc30f54b37ef164fee88560e8dbe5e3]
link 1To2 to Account2--><path d="M959.495,153.28 C992.066,205.1 1085.11,353.1 1123.8,414.642 " fill="none" id="1To2-to-Account2" style="stroke:#A80036;stroke-width:1.0;"/><polygon fill="#A80036" points="1126.49,418.921,1125.0813,409.1734,1123.8267,414.6894,1118.3107,413.4348,1126.49,418.921" style="stroke:#A80036;stroke-width:1.0;"/><!--MD5=[46cf223bfd4a9bc6c6f6de4573c3c2cf]
link Account2 to 2To6--><path d="M1089.38,465.543 C1047.28,483.115 988.246,507.753 947.119,524.917 " fill="none" id="Account2-to-2To6" style="stroke:#A80036;stroke-width:1.0;"/><polygon fill="#A80036" points="942.445,526.868,952.2913,527.0931,947.0593,524.9423,949.2101,519.7103,942.445,526.868" style="stroke:#A80036;stroke-width:1.0;"/><!--MD5=[2fb35c0f5e76e71784402e13b6c539a3]
link 2To6 to Account6--><path d="M837.801,564.363 C770.957,583.327 664.766,613.454 599.737,631.903 " fill="none" id="2To6-to-Account6" style="stroke:#A80036;stroke-width:1.0;"/><polygon fill="#A80036" points="594.74,633.321,604.4899,634.7134,599.5503,631.9566,602.307,627.017,594.74,633.321" style="stroke:#A80036;stroke-width:1.0;"/><!--MD5=[4dda2e7e619b4de2f372ae82cf44641d]
link Account2 to 2To4--><path d="M1154.08,467.171 C1163.45,483.781 1176.01,506.034 1185.3,522.49 " fill="none" id="Account2-to-2To4" style="stroke:#A80036;stroke-width:1.0;"/><polygon fill="#A80036" points="1187.82,526.969,1186.8833,517.1648,1185.3639,522.6138,1179.9149,521.0945,1187.82,526.969" style="stroke:#A80036;stroke-width:1.0;"/><!--MD5=[dd83d94decf856dd01c73cb0636ed835]
link 2To4 to Account4--><path d="M1202.21,565.031 C1210.47,604.284 1225.53,699.675 1196,771 C1187.21,792.228 1171.01,812.161 1156.52,827.17 " fill="none" id="2To4-to-Account4" style="stroke:#A80036;stroke-width:1.0;"/><polygon fill="#A80036" points="1152.88,830.878,1162.0384,827.2554,1156.3818,827.3091,1156.3282,821.6525,1152.88,830.878" style="stroke:#A80036;stroke-width:1.0;"/><!--MD5=[01103b44bf3dd301fffbb05aa494bb97]
link Account3 to 3To2--><path d="M722.611,256.29 C772.649,274.02 848.347,300.849 899.864,319.106 " fill="none" id="Account3-to-3To2" style="stroke:#A80036;stroke-width:1.0;"/><polygon fill="#A80036" points="904.773,320.846,897.6258,314.0697,900.0601,319.176,894.9538,321.6103,904.773,320.846" style="stroke:#A80036;stroke-width:1.0;"/><!--MD5=[f709e6accf5e78197d31c9c5ec154aab]
link 3To2 to Account2--><path d="M989.074,359.057 C1018.3,375.011 1061.24,398.456 1094.02,416.353 " fill="none" id="3To2-to-Account2" style="stroke:#A80036;stroke-width:1.0;"/><polygon fill="#A80036" points="1098.78,418.952,1092.7833,411.1392,1094.3871,416.564,1088.9624,418.1678,1098.78,418.952" style="stroke:#A80036;stroke-width:1.0;"/><!--MD5=[3f912904639b6d96d56bf5c069d4f47f]
link Account5 to 5To3--><path d="M568.253,1074.183 C490.357,1092.522 342.994,1127.216 257.318,1147.387 " fill="none" id="Account5-to-5To3" style="stroke:#A80036;stroke-width:1.0;"/><polygon fill="#A80036" points="252.272,1148.575,261.9491,1150.4064,257.139,1147.4293,260.116,1142.6192,252.272,1148.575" style="stroke:#A80036;stroke-width:1.0;"/><!--MD5=[1f66b2f0685b8dace901f440738ee174]
link 5To3 to Account3--><path d="M190.262,1144.993 C188.871,1109.444 186,1027.729 186,959 C186,854 186,854 186,854 C186,591.969 219.551,465.708 438,321 C492.511,284.89 564.61,262.37 614.087,250.05 " fill="none" id="5To3-to-Account3" style="stroke:#A80036;stroke-width:1.0;"/><polygon fill="#A80036" points="619.103,248.82,609.4082,247.0846,614.2476,250.0139,611.3184,254.8532,619.103,248.82" style="stroke:#A80036;stroke-width:1.0;"/><!--MD5=[96cdbe52e99c5492f8b93acab5978efd]
link Account6 to 6To4--><path d="M569.613,673.171 C589.015,690.065 615.122,712.796 634.111,729.329 " fill="none" id="Account6-to-6To4" style="stroke:#A80036;stroke-width:1.0;"/><polygon fill="#A80036" points="638.291,732.969,634.1305,724.0421,634.5202,729.6855,628.8768,730.0753,638.291,732.969" style="stroke:#A80036;stroke-width:1.0;"/><!--MD5=[12d34f4e4b85f788029a1bf04904e8cf]
link 6To4 to Account4--><path d="M724.342,767.37 C729.975,768.601 735.588,769.824 741,771 C857.926,796.404 994.867,825.755 1070.16,841.858 " fill="none" id="6To4-to-Account4" style="stroke:#A80036;stroke-width:1.0;"/><polygon fill="#A80036" points="1075.48,842.994,1067.5122,837.2048,1070.59,841.9511,1065.8436,845.0289,1075.48,842.994" style="stroke:#A80036;stroke-width:1.0;"/><!--MD5=[271985be676af3505e4907248f11032b]
link Account3 to 3To4--><path d="M697.154,261.17 C716.221,278.06 741.879,300.796 760.54,317.329 " fill="none" id="Account3-to-3To4" style="stroke:#A80036;stroke-width:1.0;"/><polygon fill="#A80036" points="764.648,320.969,760.5637,312.007,760.9054,317.6535,755.2588,317.9952,764.648,320.969" style="stroke:#A80036;stroke-width:1.0;"/><!--MD5=[83e80163b99b411311b9864c70a195a4]
link 3To4 to Account4--><path d="M783.262,359.197 C780.32,399.605 778.259,498.488 820,565 C889.793,676.212 975.813,634.829 1063,733 C1087.66,760.768 1106.06,799.724 1116.66,825.861 " fill="none" id="3To4-to-Account4" style="stroke:#A80036;stroke-width:1.0;"/><polygon fill="#A80036" points="1118.54,830.587,1118.927,820.7457,1116.6904,825.9417,1111.4945,823.7051,1118.54,830.587" style="stroke:#A80036;stroke-width:1.0;"/><!--MD5=[cce647bc136a55a8c5d4ad645801e968]
link Account3 to 3To7--><path d="M619.42,242.39 C513.598,252.16 276.165,278.29 208,321 C170.129,344.727 143.415,391.213 129.966,419.151 " fill="none" id="Account3-to-3To7" style="stroke:#A80036;stroke-width:1.0;"/><polygon fill="#A80036" points="127.766,423.805,135.2292,417.3784,129.9032,419.2848,127.9969,413.9588,127.766,423.805" style="stroke:#A80036;stroke-width:1.0;"/><!--MD5=[f984dfe4d2179bae14c36ca3f7d0ee69]
link 3To7 to Account7--><path d="M113.562,462.017 C101.5669,497.252 77,577.963 77,648 C77,648 77,648 77,1062 C77,1117.982 70.0181,1145.966 112,1183 C184.78,1247.2029 491.983,1261.9233 600.136,1265.1416 " fill="none" id="3To7-to-Account7" style="stroke:#A80036;stroke-width:1.0;"/><polygon fill="#A80036" points="605.441,1265.295,596.5602,1261.037,600.4431,1265.1507,596.3293,1269.0336,605.441,1265.295" style="stroke:#A80036;stroke-width:1.0;"/><!--MD5=[7836be6d64bfbf29e63f2c67bcce5f2c]
link Account5 to 5To7--><path d="M624.13,1085.171 C627.039,1101.497 630.92,1123.275 633.837,1139.641 " fill="none" id="Account5-to-5To7" style="stroke:#A80036;stroke-width:1.0;"/><polygon fill="#A80036" points="634.787,1144.969,637.1462,1135.4069,633.9099,1140.0465,629.2703,1136.8102,634.787,1144.969" style="stroke:#A80036;stroke-width:1.0;"/><!--MD5=[50f9790aa6c0bfbee31bf75caeac3c38]
link 5To7 to Account7--><path d="M638,1183.057 C638,1198.1746 638,1220.0194 638,1237.4959 " fill="none" id="5To7-to-Account7" style="stroke:#A80036;stroke-width:1.0;"/><polygon fill="#A80036" points="638,1242.7672,642,1233.7672,638,1237.7672,634,1233.7672,638,1242.7672" style="stroke:#A80036;stroke-width:1.0;"/><!--MD5=[a124831430d9b91e88b542521741185b]
link Account2 to 2To3--><path d="M1192.51,456.183 C1269.93,474.496 1416.3,509.119 1501.63,529.302 " fill="none" id="Account2-to-2To3" style="stroke:#A80036;stroke-width:1.0;"/><polygon fill="#A80036" points="1506.66,530.491,1498.8296,524.5173,1501.7957,529.3342,1496.9787,532.3002,1506.66,530.491" style="stroke:#A80036;stroke-width:1.0;"/><!--MD5=[ac77522d0fc5d5a86be18a0f50a20dfa]
link 2To3 to Account3--><path d="M1531.29,526.987 C1445.86,485.659 1226.38,382.834 1034,321 C927.767,286.86 799.765,261.02 727.644,247.81 " fill="none" id="2To3-to-Account3" style="stroke:#A80036;stroke-width:1.0;"/><polygon fill="#A80036" points="722.549,246.89,730.6843,252.4413,727.4677,247.788,732.121,244.5713,722.549,246.89" style="stroke:#A80036;stroke-width:1.0;"/><!--MD5=[b45893c35651679d005ef81511deaa98]
link Account5 to 5To2--><path d="M671.724,1070.481 C783.27,1088.77 1046.32,1131.9 1169.8,1152.146 " fill="none" id="Account5-to-5To2" style="stroke:#A80036;stroke-width:1.0;"/><polygon fill="#A80036" points="1174.86,1152.975,1166.6314,1147.563,1169.9267,1152.1609,1165.3288,1155.4562,1174.86,1152.975" style="stroke:#A80036;stroke-width:1.0;"/><!--MD5=[8723c8af767478f658fbcf84d074c935]
link 5To2 to Account2--><path d="M1261.61,1144.837 C1303.72,1112.618 1383,1041.069 1383,959 C1383,648 1383,648 1383,648 C1383,586.093 1359.3,569.195 1314,527 C1280.87,496.143 1234.17,474.658 1197.63,461.289 " fill="none" id="5To2-to-Account2" style="stroke:#A80036;stroke-width:1.0;"/><polygon fill="#A80036" points="1192.77,459.538,1199.8742,466.3593,1197.4722,461.2378,1202.5938,458.8358,1192.77,459.538" style="stroke:#A80036;stroke-width:1.0;"/><!--MD5=[049501437dcf742f32b0c9404ef84726]
link Account3 to 3To5--><path d="M619.343,247.07 C574.247,257.53 509.938,279.01 470,321 C444.217,348.109 433.759,391.672 429.614,418.467 " fill="none" id="Account3-to-3To5" style="stroke:#A80036;stroke-width:1.0;"/><polygon fill="#A80036" points="428.866,423.593,434.1225,415.2642,429.5873,418.6453,426.2062,414.1101,428.866,423.593" style="stroke:#A80036;stroke-width:1.0;"/><!--MD5=[ba7045810955be28517a704b4c09a98d]
link 3To5 to Account5--><path d="M411.428,462.199 C360.255,524.319 205.374,732.257 292,879 C322.381,930.465 478.175,1001.316 563.664,1037.198 " fill="none" id="3To5-to-Account5" style="stroke:#A80036;stroke-width:1.0;"/><polygon fill="#A80036" points="568.436,1039.195,561.6773,1032.0312,563.8235,1037.2651,558.5895,1039.4113,568.436,1039.195" style="stroke:#A80036;stroke-width:1.0;"/><!--MD5=[66ae6efc60b88080c5d53fc5c0ab66a5]
link Account4 to 4To6--><path d="M1075.4,868.997 C1003.159,887.192 871.845,920.266 792.399,940.276 " fill="none" id="Account4-to-4To6" style="stroke:#A80036;stroke-width:1.0;"/><polygon fill="#A80036" points="787.242,941.575,796.9465,943.2553,792.0905,940.3536,794.9922,935.4976,787.242,941.575" style="stroke:#A80036;stroke-width:1.0;"/><!--MD5=[cc778b96d9b8efc0e971e833833a3566]
link 4To6 to Account6--><path d="M721.372,938.934 C713.932,912.73 697.214,863.736 669,831 C636.887,793.74 605.06,810.687 576,771 C555.86,743.495 548.011,704.376 544.953,678.136 " fill="none" id="4To6-to-Account6" style="stroke:#A80036;stroke-width:1.0;"/><polygon fill="#A80036" points="544.403,673.067,541.3983,682.4463,544.9429,678.0378,549.3515,681.5824,544.403,673.067" style="stroke:#A80036;stroke-width:1.0;"/><!--MD5=[b9502a650c70bcd904b2cda9a9edf92c]
link Account3 to 3To6--><path d="M643.011,261.17 C622.434,278.21 594.685,301.179 574.675,317.745 " fill="none" id="Account3-to-3To6" style="stroke:#A80036;stroke-width:1.0;"/><polygon fill="#A80036" points="570.78,320.969,580.2633,318.3107,574.6314,317.7805,575.1617,312.1485,570.78,320.969" style="stroke:#A80036;stroke-width:1.0;"/><!--MD5=[6752d76ea75f786d5dc74df3d98483ea]
link 3To6 to Account6--><path d="M548.643,359.285 C547.634,410.888 544.761,557.917 543.549,619.899 " fill="none" id="3To6-to-Account6" style="stroke:#A80036;stroke-width:1.0;"/><polygon fill="#A80036" points="543.451,624.921,547.6251,616.0004,543.5481,619.9219,539.6266,615.845,543.451,624.921" style="stroke:#A80036;stroke-width:1.0;"/><!--MD5=[72bb66dd83d86c1ecc4552a0ae73b422]
link Account6 to 6To3--><path d="M594.54,668.525 C643.964,686.289 718.337,713.022 768.914,731.2 " fill="none" id="Account6-to-6To3" style="stroke:#A80036;stroke-width:1.0;"/><polygon fill="#A80036" points="773.732,732.932,766.6155,726.1235,769.0267,731.2407,763.9095,733.6519,773.732,732.932" style="stroke:#A80036;stroke-width:1.0;"/><!--MD5=[da5e561d87742a059915c6d154e77aad]
link 6To3 to Account3--><path d="M796.999,732.828 C753.076,700.856 671,630.008 671,547 C671,442 671,442 671,442 C671,379.295 671,305.747 671,266.35 " fill="none" id="6To3-to-Account3" style="stroke:#A80036;stroke-width:1.0;"/><polygon fill="#A80036" points="671,261.25,667,270.25,671,266.25,675,270.25,671,261.25" style="stroke:#A80036;stroke-width:1.0;"/><!--MD5=[d320b8249031e40ea0c5997d41538fbe]
link Account5 to 5To6--><path d="M589.028,1085.171 C566.164,1102.277 535.297,1125.37 513.134,1141.951 " fill="none" id="Account5-to-5To6" style="stroke:#A80036;stroke-width:1.0;"/><polygon fill="#A80036" points="509.101,1144.969,518.7036,1142.7805,513.1046,1141.9738,513.9113,1136.3748,509.101,1144.969" style="stroke:#A80036;stroke-width:1.0;"/><!--MD5=[d873c38a87f2a70e357559d7080cc7eb]
link 5To6 to Account6--><path d="M483.039,1144.587 C477.184,1084.321 462.574,887.944 502,733 C506.921,713.662 516.712,693.559 525.492,677.981 " fill="none" id="5To6-to-Account6" style="stroke:#A80036;stroke-width:1.0;"/><polygon fill="#A80036" points="528.178,673.298,520.2295,679.1136,525.6896,677.6348,527.1684,683.095,528.178,673.298" style="stroke:#A80036;stroke-width:1.0;"/><!--MD5=[f34651a6aa45e1c874123f49e7f74e7d]
link Account4 to 4To3--><path d="M1178.66,870.257 C1244.95,888.55 1359.85,920.255 1430.85,939.848 " fill="none" id="Account4-to-4To3" style="stroke:#A80036;stroke-width:1.0;"/><polygon fill="#A80036" points="1435.88,941.238,1428.267,934.9897,1431.0599,939.909,1426.1405,942.7019,1435.88,941.238" style="stroke:#A80036;stroke-width:1.0;"/><!--MD5=[3a28e8f09e72d8f29602291836d0aefc]
link 4To3 to Account3--><path d="M1528.99,938.995 C1583.83,908.718 1682,842.077 1682,753 C1682,442 1682,442 1682,442 C1682,245.78 941.004,236.02 727.768,237.27 " fill="none" id="4To3-to-Account3" style="stroke:#A80036;stroke-width:1.0;"/><polygon fill="#A80036" points="722.526,237.3,731.5521,241.2408,727.5259,237.2671,731.4995,233.2409,722.526,237.3" style="stroke:#A80036;stroke-width:1.0;"/><!--MD5=[611bdc4616017435f98b1bafa43011a2]
link Account4 to 4To5--><path d="M1090.98,879.171 C1064.28,896.348 1028.2,919.562 1002.399,936.157 " fill="none" id="Account4-to-4To5" style="stroke:#A80036;stroke-width:1.0;"/><polygon fill="#A80036" points="998.029,938.969,1007.7619,937.462,1002.2335,936.2631,1003.4325,930.7348,998.029,938.969" style="stroke:#A80036;stroke-width:1.0;"/><!--MD5=[9cdae9dc2f676d814741ff3e09152ad5]
link 4To5 to Account5--><path d="M908.634,976.708 C843.096,995.621 740.096,1025.344 676.491,1043.698 " fill="none" id="4To5-to-Account5" style="stroke:#A80036;stroke-width:1.0;"/><polygon fill="#A80036" points="671.602,1045.109,681.358,1046.4581,676.4062,1043.7233,679.1409,1038.7715,671.602,1045.109" style="stroke:#A80036;stroke-width:1.0;"/><!--MD5=[d29f6175a3f87a9eff0a9a82b1e169b2]
link Account4 to 4To2--><path d="M1159.58,879.171 C1183.63,896.277 1216.09,919.37 1239.41,935.951 " fill="none" id="Account4-to-4To2" style="stroke:#A80036;stroke-width:1.0;"/><polygon fill="#A80036" points="1243.65,938.969,1238.6373,930.4912,1239.5765,936.0696,1233.9982,937.0088,1243.65,938.969" style="stroke:#A80036;stroke-width:1.0;"/><!--MD5=[fbabc8d4b124a098496ece432d1f7d59]
link 4To2 to Account2--><path d="M1275.44,938.983 C1287.43,903.748 1312,823.037 1312,753 C1312,648 1312,648 1312,648 C1312,591.893 1310.15,571.518 1276,527 C1255.82,500.689 1224.71,480.755 1197.45,467.026 " fill="none" id="4To2-to-Account2" style="stroke:#A80036;stroke-width:1.0;"/><polygon fill="#A80036" points="1192.76,464.705,1199.0569,472.2779,1197.2427,466.9199,1202.6007,465.1057,1192.76,464.705" style="stroke:#A80036;stroke-width:1.0;"/><!--MD5=[c99f081c0ff026184a2953f7727c4d14]
link Account6 to 6To7--><path d="M491.286,660.063 C451.476,670.798 399.002,692.125 373,733 C354.182,762.582 359.047,805.012 364.716,830.971 " fill="none" id="Account6-to-6To7" style="stroke:#A80036;stroke-width:1.0;"/><polygon fill="#A80036" points="365.854,835.934,367.7417,826.2677,364.7367,831.0604,359.944,828.0554,365.854,835.934" style="stroke:#A80036;stroke-width:1.0;"/><!--MD5=[97b76bf58ce6e8c696ceea2fcd0db2e1]
link 6To7 to Account7--><path d="M366.878,874.368 C355.909,928.341 331.657,1088.567 406,1183 C453.2,1242.9544 547.259,1259.6555 599.962,1264.2713 " fill="none" id="6To7-to-Account7" style="stroke:#A80036;stroke-width:1.0;"/><polygon fill="#A80036" points="605.242,1264.7054,596.6003,1259.9809,600.2588,1264.2954,595.9443,1267.9539,605.242,1264.7054" style="stroke:#A80036;stroke-width:1.0;"/><!--MD5=[e1be99154518d466b41a8b2b9d929faf]
link Account6 to 6To2--><path d="M594.568,661.784 C675.028,680.169 830.367,715.665 918.925,735.901 " fill="none" id="Account6-to-6To2" style="stroke:#A80036;stroke-width:1.0;"/><polygon fill="#A80036" points="923.875,737.033,915.9928,731.1279,919.0007,735.9187,914.2099,738.9267,923.875,737.033" style="stroke:#A80036;stroke-width:1.0;"/><!--MD5=[72a0194074cf8a799f21dcfdd8049fde]
link 6To2 to Account2--><path d="M994.118,732.605 C1006.31,708.038 1028.65,663.176 1048,625 C1075.59,570.565 1108.29,507.179 1126.64,471.707 " fill="none" id="6To2-to-Account2" style="stroke:#A80036;stroke-width:1.0;"/><polygon fill="#A80036" points="1129.03,467.102,1121.3336,473.2474,1126.7266,471.5398,1128.4342,476.9328,1129.03,467.102" style="stroke:#A80036;stroke-width:1.0;"/><!--MD5=[a7ba9b13f47ae5ad9ffea34dc6c197d6]
link Account2 to 2To5--><path d="M1133.09,467.288 C1127.93,483.749 1121.68,506.452 1119,527 C1114.58,560.913 1118.99,600.508 1122.81,624.919 " fill="none" id="Account2-to-2To5" style="stroke:#A80036;stroke-width:1.0;"/><polygon fill="#A80036" points="1123.61,629.89,1126.1287,620.3687,1122.8153,624.9536,1118.2304,621.6401,1123.61,629.89" style="stroke:#A80036;stroke-width:1.0;"/><!--MD5=[e794cd29c62572d42e78d7271954e264]
link 2To5 to Account5--><path d="M1120.15,668.209 C1110.17,693.179 1089.86,738.632 1063,771 C969.071,884.183 929.557,900.394 804,977 C763.345,1001.805 714.002,1023.664 676.651,1038.715 " fill="none" id="2To5-to-Account5" style="stroke:#A80036;stroke-width:1.0;"/><polygon fill="#A80036" points="671.695,1040.7,681.5371,1041.0651,676.3362,1038.8401,678.5612,1033.6392,671.695,1040.7" style="stroke:#A80036;stroke-width:1.0;"/><!--MD5=[14c6741d48ec01d06d6afd87086049b6]
link Account5 to 5To4--><path d="M671.637,1078.452 C727.352,1096.204 816.042,1124.461 875.367,1143.363 " fill="none" id="Account5-to-5To4" style="stroke:#A80036;stroke-width:1.0;"/><polygon fill="#A80036" points="880.299,1144.934,872.937,1138.3917,875.5347,1143.4169,870.5096,1146.0146,880.299,1144.934" style="stroke:#A80036;stroke-width:1.0;"/><!--MD5=[4201047fb27fcb7311f91bbbcf006819]
link 5To4 to Account4--><path d="M948.236,1144.845 C980.229,1093.152 1071.95,944.951 1110.07,883.357 " fill="none" id="5To4-to-Account4" style="stroke:#A80036;stroke-width:1.0;"/><polygon fill="#A80036" points="1112.72,879.075,1104.5855,884.6274,1110.0911,883.3281,1111.3904,888.8337,1112.72,879.075" style="stroke:#A80036;stroke-width:1.0;"/><!--MD5=[ae1b827b5860288db6855bd9504b7521]
link Account6 to 6To5--><path d="M529.393,673.4 C516.797,698.264 501.849,738.407 515,771 C525.095,796.019 546.741,817.704 564.974,832.629 " fill="none" id="Account6-to-6To5" style="stroke:#A80036;stroke-width:1.0;"/><polygon fill="#A80036" points="569.046,835.897,564.5322,827.1434,565.1471,832.7667,559.5238,833.3816,569.046,835.897" style="stroke:#A80036;stroke-width:1.0;"/><!--MD5=[be7d2e196c9b83abe249b79a5a11b7ed]
link 6To5 to Account5--><path d="M597.219,874.104 C601.582,909.711 611.309,989.084 616.53,1031.684 " fill="none" id="6To5-to-Account5" style="stroke:#A80036;stroke-width:1.0;"/><polygon fill="#A80036" points="617.144,1036.692,620.0188,1027.2721,616.5354,1031.7292,612.0783,1028.2458,617.144,1036.692" style="stroke:#A80036;stroke-width:1.0;"/><!--MD5=[6032325113a22576450a2784bdec332a]
link Account2 to 2To7--><path d="M1192.59,452.478 C1248.84,463.372 1340.04,485.967 1409,527 C1453.17,553.279 1493.61,598.379 1515.63,625.471 " fill="none" id="Account2-to-2To7" style="stroke:#A80036;stroke-width:1.0;"/><polygon fill="#A80036" points="1519.01,629.659,1516.4687,620.1437,1515.8691,625.7686,1510.2441,625.1691,1519.01,629.659" style="stroke:#A80036;stroke-width:1.0;"/><!--MD5=[20b258d3c583fff20670b04ba6e9872e]
link 2To7 to Account7--><path d="M1543.78,668.123 C1563.42,702.894 1603,781.921 1603,854 C1603,854 1603,854 1603,1062 C1603,1255.0922 854.072,1266.2939 675.768,1266.2245 " fill="none" id="2To7-to-Account7" style="stroke:#A80036;stroke-width:1.0;"/><polygon fill="#A80036" points="670.66,1266.2194,679.6554,1270.2297,675.66,1266.2251,679.6646,1262.2297,670.66,1266.2194" style="stroke:#A80036;stroke-width:1.0;"/><!--MD5=[d341ae5beb20a15ef74af8e70d088581]
link Account4 to 4To7--><path d="M1132.95,879.23 C1141.17,906.652 1158.67,951.713 1190,977 C1259.6,1033.172 1364.35,1051.437 1430.67,1057.311 " fill="none" id="Account4-to-4To7" style="stroke:#A80036;stroke-width:1.0;"/><polygon fill="#A80036" points="1435.77,1057.745,1427.1459,1052.9885,1430.7884,1057.3165,1426.4603,1060.9591,1435.77,1057.745" style="stroke:#A80036;stroke-width:1.0;"/><!--MD5=[3492022ff9bea3021f66d5bf9fa853e7]
link 4To7 to Account7--><path d="M1473.32,1080.034 C1442.13,1107.44 1378.28,1158.928 1314,1183 C1195.09,1227.5279 799.898,1255.7612 675.697,1263.7 " fill="none" id="4To7-to-Account7" style="stroke:#A80036;stroke-width:1.0;"/><polygon fill="#A80036" points="670.69,1264.0184,679.9256,1267.4395,675.6799,1263.7013,679.4182,1259.4556,670.69,1264.0184" style="stroke:#A80036;stroke-width:1.0;"/><!--MD5=[12d480d234d3e0dd7f106da86084a48b]
@startuml

skinparam componentStyle uml2
component "Start" as Account1 {
}
component "Account 2" as Account2 {
}
component "Account 3" as Account3 {
}
component "Account 4" as Account4 {
}
component "Account 5" as Account5 {
}
component "Account 6" as Account6 {
}
component "End" as Account7 {
}
file "499230,64 Euro" as 1To3
Account1 - -> 1To3
1To3 - -> Account3
file "346845,04 Euro" as 1To6
Account1 - -> 1To6
1To6 - -> Account6
file "92181,48 Euro" as 1To4
Account1 - -> 1To4
1To4 - -> Account4
file "57393,19 Euro" as 1To5
Account1 - -> 1To5
1To5 - -> Account5
file "4349,65 Euro" as 1To2
Account1 - -> 1To2
1To2 - -> Account2
file "857112,53 Euro" as 2To6
Account2 - -> 2To6
2To6 - -> Account6
file "428875,36 Euro" as 2To4
Account2 - -> 2To4
2To4 - -> Account4
file "934101,12 Euro" as 3To2
Account3 - -> 3To2
3To2 - -> Account2
file "463309,01 Euro" as 5To3
Account5 - -> 5To3
5To3 - -> Account3
file "1077192,21 Euro" as 6To4
Account6 - -> 6To4
6To4 - -> Account4
file "171248,45 Euro" as 3To4
Account3 - -> 3To4
3To4 - -> Account4
file "436591,97 Euro" as 3To7
Account3 - -> 3To7
3To7 - -> Account7
file "73718,41 Euro" as 5To7
Account5 - -> 5To7
5To7 - -> Account7
file "252894,81 Euro" as 2To3
Account2 - -> 2To3
2To3 - -> Account3
file "208143,63 Euro" as 5To2
Account5 - -> 5To2
5To2 - -> Account2
file "140085,29 Euro" as 3To5
Account3 - -> 3To5
3To5 - -> Account5
file "463893,87 Euro" as 4To6
Account4 - -> 4To6
4To6 - -> Account6
file "698192,90 Euro" as 3To6
Account3 - -> 3To6
3To6 - -> Account6
file "1126509,23 Euro" as 6To3
Account6 - -> 6To3
6To3 - -> Account3
file "521120,78 Euro" as 5To6
Account5 - -> 5To6
5To6 - -> Account6
file "38276,04 Euro" as 4To3
Account4 - -> 4To3
4To3 - -> Account3
file "699075,30 Euro" as 4To5
Account4 - -> 4To5
4To5 - -> Account5
file "703063,71 Euro" as 4To2
Account4 - -> 4To2
4To2 - -> Account2
file "198763,72 Euro" as 6To7
Account6 - -> 6To7
6To7 - -> Account7
file "427955,58 Euro" as 6To2
Account6 - -> 6To2
6To2 - -> Account2
file "491146,79 Euro" as 2To5
Account2 - -> 2To5
2To5 - -> Account5
file "178153,12 Euro" as 5To4
Account5 - -> 5To4
5To4 - -> Account4
file "56744,38 Euro" as 6To5
Account6 - -> 6To5
6To5 - -> Account5
file "247584,20 Euro" as 2To7
Account2 - -> 2To7
2To7 - -> Account7
file "43341,70 Euro" as 4To7
Account4 - -> 4To7
4To7 - -> Account7
@enduml

PlantUML version 1.2020.22(Sun Dec 06 10:36:27 CET 2020)
(GPL source distribution)
Java Runtime: OpenJDK Runtime Environment
JVM: OpenJDK 64-Bit Server VM
Default Encoding: Cp1252
Language: de
Country: DE
--></g></svg>